<?xml version="1.0" encoding="UTF-8" standalone="no"?>
<!DOCTYPE svg PUBLIC "-//W3C//DTD SVG 1.1//EN" "http://www.w3.org/Graphics/SVG/1.1/DTD/svg11.dtd">
<svg width="1320px" height="1281px" version="1.1" xmlns="http://www.w3.org/2000/svg" xmlns:xlink="http://www.w3.org/1999/xlink" xml:space="preserve" xmlns:serif="http://www.serif.com/" style="fill-rule:evenodd;clip-rule:evenodd;stroke-linejoin:round;stroke-miterlimit:2;">
    <g transform="matrix(1,0,0,1,-50615.1,-629.471)">
        <g transform="matrix(1,0,0,1,-0.419948,0)">
            <g transform="matrix(0.475928,-0.127524,0.127524,0.475928,-63206.9,29872.4)">
                <path d="M239112,3055.77C239142,3022.96 239212,2933.23 239206,2833.09C239197,2685.6 239193,2628.24 239223,2661.11C239252,2693.98 239488,2803.83 239436,2902.76C239383,3001.7 239316,3251.22 239358,3241.39C239399,3231.57 239527,3186 239594,3168.05C239648,3153.56 239699,3143.02 239758,3133.69C239801,3126.89 239840,3247.12 239865,3250.38C239889,3253.64 239901,3164.98 239905,3153.28C239917,3123.04 239930,2980.33 239987,3008.91C240045,3037.49 240068,3042.18 240098,3059.83C240128,3077.48 240516,3054.31 240610,3122.88C240686,3178.7 240683,3430.19 240661,3471.24C240647,3495.91 240562,3568.23 240537,3604.93C240521,3629.86 240489,3671.12 240512,3691.44C240544,3721.48 240634,3791 240734,3785.2C240882,3776.64 240939,3772.44 240906,3801.72C240873,3830.99 240764,4067.38 240665,4014.87C240566,3962.37 240316,3895.21 240326,3936.8C240336,3978.4 240381,4106.7 240399,4173.46C240414,4227.36 240424,4278.27 240434,4337.34C240441,4380.44 240320,4419.65 240317,4444.15C240314,4468.65 240402,4479.9 240414,4484.36C240444,4495.89 240587,4509.28 240559,4566.64C240530,4624 240525,4647.35 240508,4677.5C240490,4707.66 240095,4928.03 240027,5021.74C239971,5098.03 240137,5262.56 240096,5239.78C240072,5226.1 239999,5141.51 239963,5116.69C239938,5099.83 239896,5068.69 239876,5090.89C239846,5123.7 239776,5213.43 239782,5313.57C239791,5461.06 239795,5518.42 239766,5485.55C239736,5452.68 239500,5342.83 239553,5243.89C239605,5144.96 239672,4895.44 239631,4905.27C239589,4915.09 239461,4960.66 239394,4978.61C239340,4993.1 239289,5003.64 239230,5012.97C239187,5019.77 239148,4899.54 239123,4896.28C239099,4893.01 239088,4981.68 239083,4993.38C239072,5023.62 239058,5166.33 239001,5137.75C238943,5109.17 238920,5104.48 238890,5086.83C238860,5069.18 238806,4758.21 238713,4689.64C238636,4633.82 238305,4716.47 238328,4675.42C238341,4650.75 238426,4578.43 238451,4541.73C238468,4516.8 238499,4475.54 238477,4455.22C238444,4425.18 238354,4355.65 238254,4361.46C238106,4370.02 238049,4374.22 238082,4344.94C238115,4315.66 238225,4079.28 238324,4131.78C238422,4184.29 238672,4251.45 238662,4209.85C238652,4168.26 238607,4039.95 238589,3973.2C238574,3919.3 238564,3868.39 238554,3809.32C238548,3766.22 238668,3727.01 238671,3702.51C238674,3678 238586,3666.76 238574,3662.29C238544,3650.77 238401,3637.38 238430,3580.02C238458,3522.66 238212,3499.31 238230,3469.16C238247,3439 238642,3218.63 238711,3124.91C238767,3048.63 238851,2884.1 238892,2906.87C238917,2920.56 238989,3005.15 239026,3029.97C239051,3046.83 239092,3077.97 239112,3055.77ZM238982,3471.91C238968,3466.2 238949,3491.48 238946,3500.62C238936,3537.06 238906,3632.73 239032,3812.9C239159,3993.08 238963,3926.52 238980,3983.08C239005,4062.13 239173,4225.88 239181,4287.19C239188,4341.17 239068,4311.76 239030,4350.94C238982,4400.68 238911,4540.57 238893,4585.62C238887,4599.76 238912,4618.77 238921,4621.23C238958,4631.08 239054,4661.86 239234,4535.39C239414,4408.92 239347,4604.87 239404,4587.11C239483,4562.3 239647,4394.86 239708,4386.5C239762,4379.15 239733,4499.14 239772,4536.98C239821,4585.02 239961,4656.57 240006,4674.75C240021,4680.45 240040,4655.18 240042,4646.04C240052,4609.6 240083,4513.93 239956,4333.76C239830,4153.58 240026,4220.14 240008,4163.57C239983,4084.53 239816,3920.78 239807,3859.47C239800,3805.49 239920,3834.9 239958,3795.72C240006,3745.98 240077,3606.09 240096,3561.04C240101,3546.9 240076,3527.89 240067,3525.42C240030,3515.57 239935,3484.8 239755,3611.27C239574,3737.74 239641,3541.79 239584,3559.55C239505,3584.36 239342,3751.8 239280,3760.16C239226,3767.51 239256,3647.52 239217,3609.68C239167,3561.63 239027,3490.09 238982,3471.91Z" style="fill:#f5840d;"/>
            </g>
        </g>
    </g>
</svg>
